<?xml version="1.0" encoding="UTF-8"?><svg id="Layer_1" xmlns="http://www.w3.org/2000/svg" viewBox="0 0 259.83 35.5"><defs><style>.cls-1{letter-spacing:-.04em;}.cls-2{font-size:6px;}.cls-2,.cls-3{fill:#fff;font-family:MyriadPro-Regular, 'Myriad Pro';}.cls-3{font-size:24px;}.cls-4{letter-spacing:0em;}.cls-5{letter-spacing:0em;}.cls-6{letter-spacing:0em;}.cls-7{letter-spacing:0em;}.cls-8{stroke-linecap:round;}.cls-8,.cls-9{fill:none;stroke:#49a942;stroke-width:2px;}.cls-10{letter-spacing:0em;}.cls-9{stroke-linecap:square;}.cls-11{letter-spacing:0em;}.cls-12{letter-spacing:-.01em;}</style></defs><text class="cls-3" transform="translate(50.58 29.5)"><tspan class="cls-6" x="0" y="0">M</tspan><tspan class="cls-4" x="19.44" y="0">a</tspan><tspan class="cls-12" x="31.01" y="0">r</tspan><tspan x="38.62" y="0">cus En</tspan><tspan class="cls-10" x="102.31" y="0">g</tspan><tspan x="115.58" y="0">inee</tspan><tspan class="cls-7" x="158.57" y="0">r</tspan><tspan class="cls-11" x="166.51" y="0">ing</tspan></text><g><path class="cls-8" d="M25.76,19.89l-.51,1.41m4.79-13.17l-.25,.68m1.14-3.12l-.89,2.44m-4.28,11.77l2.82-.5-3.65-4.35,5.68-1-3.8-4.54,2.92-.53"/><path class="cls-8" d="M39.93,19.9l.51,1.41m-4.79-13.17l.25,.68m-1.14-3.12l.89,2.44m4.28,11.76l1.84-2.19-5.59-.99,3.71-4.42-5.83-1.03,1.9-2.28"/><line class="cls-9" x1="40.44" y1="21.31" x2="43.3" y2="29.11"/><polyline class="cls-9" points="34.76 5.69 33.07 1 32.66 1 30.94 5.68"/><path class="cls-8" d="M18.94,19.9l.51,1.41m-4.79-13.17l.25,.68m-1.14-3.12l.89,2.44m4.28,11.76l1.84-2.19-5.6-.99,3.71-4.42-5.83-1.03,1.9-2.28"/><polyline class="cls-9" points="19.45 21.31 22.31 29.11 22.43 29.11 25.25 21.3"/><path class="cls-8" d="M4.62,19.89l-.51,1.41m4.79-13.17l-.25,.68m1.14-3.12l-.89,2.44m-4.28,11.77l2.82-.5-3.65-4.35,5.68-1-3.8-4.54,2.92-.53"/><line class="cls-9" x1="4.11" y1="21.3" x2="1.28" y2="29.11"/><polyline class="cls-9" points="9.79 5.68 11.51 1 12.08 1 13.77 5.69"/></g><text class="cls-2" transform="translate(250.92 28.17)"><tspan x="0" y="0">L</tspan><tspan class="cls-1" x="2.83" y="0">L</tspan><tspan class="cls-5" x="5.43" y="0">C</tspan></text></svg>