<?xml version="1.0" encoding="utf-8"?>
<!-- Generator: Adobe Illustrator 16.0.0, SVG Export Plug-In . SVG Version: 6.00 Build 0)  -->
<!DOCTYPE svg PUBLIC "-//W3C//DTD SVG 1.1//EN" "http://www.w3.org/Graphics/SVG/1.1/DTD/svg11.dtd">
<svg version="1.1" id="Layer_1" xmlns="http://www.w3.org/2000/svg" xmlns:xlink="http://www.w3.org/1999/xlink" x="0px" y="0px"
	 width="126.709px" height="60.491px" viewBox="0 0 126.709 60.491" enable-background="new 0 0 126.709 60.491"
	 xml:space="preserve">
<g>
	<path fill="#49A942" d="M118.854,23.811l-0.236-0.651l2.465-2.939l-5.239-0.924l3.474-4.139l-5.466-0.965l0.677-0.813
		c0.258-0.308,0.297-0.724,0.139-1.064c-0.008-0.027-0.017-0.054-0.026-0.081l-0.229-0.632c-0.001-0.001-0.002-0.002-0.002-0.003
		l-0.832-2.289c0,0-0.001,0-0.001-0.001l-1.817-5.053l-1.788,0.005l-1.854,5.037c0,0,0,0,0,0.001l-0.025,0.07l-0.318,0.864
		l0.003,0.001l-0.493,1.354c0,0.001,0,0.002,0,0.003l-0.094,0.255l-3.871,0.695l3.559,4.243l-5.322,0.937l3.42,4.078l-0.917,0.162
		c-0.038,0.006-0.075,0.014-0.111,0.024c-0.145,0.04-0.274,0.11-0.383,0.203c-0.103,0.088-0.189,0.198-0.251,0.326
		c-0.018,0.036-0.033,0.073-0.046,0.111l-0.132,0.362l-0.002-0.001l-2.105,5.827l-1.834-5.003l-0.236-0.649l2.465-2.939
		l-5.239-0.924l3.474-4.139l-5.466-0.965l0.677-0.813c0.258-0.308,0.297-0.724,0.139-1.064c-0.008-0.027-0.017-0.054-0.026-0.081
		l-0.229-0.632c-0.001-0.001-0.002-0.002-0.002-0.003L93.914,9.31c0,0-0.001,0-0.001-0.001l-1.817-5.052l-1.93,0.004l-1.855,5.037
		c0,0,0,0.001,0,0.001L88.281,9.38l-0.314,0.854l0.003,0.001l-0.493,1.354c0,0.001,0,0.002,0,0.003l-0.094,0.255l-3.871,0.695
		l3.559,4.243l-5.322,0.937l3.42,4.078l-0.917,0.162c-0.038,0.006-0.075,0.014-0.111,0.024c-0.145,0.04-0.274,0.11-0.383,0.203
		c-0.103,0.088-0.189,0.198-0.251,0.326c-0.018,0.036-0.033,0.073-0.046,0.111l-0.132,0.362l-0.002-0.001l-3.325,9.199l1.881,0.68
		l3.009-8.323l0.258-0.708l3.777-0.666l-3.42-4.077l5.324-0.937L87.262,13.9l1.041-0.187c0.394-0.071,0.691-0.363,0.789-0.725
		c0.012-0.026,0.023-0.053,0.033-0.08l0.23-0.633c0-0.001,0.001-0.002,0.002-0.003l0.832-2.289c0,0,0-0.001,0-0.001l0.932-2.527
		l0.912,2.538c0,0,0,0.001,0,0.001l0.017,0.044l0.321,0.894l0.004-0.001l0.491,1.35c0,0.001,0.001,0.002,0.001,0.003l0.094,0.258
		l-2.519,3.021l5.454,0.962l-3.476,4.14l5.241,0.924l-0.599,0.713c-0.026,0.03-0.05,0.062-0.073,0.094
		c-0.081,0.12-0.133,0.252-0.158,0.388c-0.023,0.137-0.02,0.28,0.016,0.421c0.01,0.039,0.022,0.077,0.037,0.114l0.131,0.361
		l-0.002,0.001l3.262,8.895l1.51,0.014l2.911-8.053l0.257-0.705l3.777-0.666l-3.42-4.077l5.324-0.937l-3.568-4.253l1.041-0.187
		c0.394-0.071,0.691-0.363,0.789-0.725c0.012-0.026,0.023-0.053,0.033-0.08l0.23-0.633c0-0.001,0.001-0.002,0.002-0.003l0.832-2.289
		c0,0,0-0.001,0-0.002l0.859-2.331l0.842,2.342c0,0,0,0.001,0,0.001l0.014,0.037l0.324,0.901l0.004-0.001l0.491,1.35
		c0,0.001,0.001,0.002,0.001,0.003l0.094,0.258l-2.519,3.021l5.454,0.962l-3.476,4.14l5.241,0.924l-0.599,0.713
		c-0.026,0.03-0.05,0.062-0.073,0.094c-0.081,0.12-0.133,0.252-0.158,0.388c-0.023,0.137-0.02,0.28,0.016,0.421
		c0.01,0.039,0.022,0.077,0.037,0.114l0.131,0.361l-0.002,0.001l3.367,9.184l1.878-0.688L118.854,23.811z"/>
	<g>
		<path d="M18.888,22.405c-0.12-2.256-0.264-4.969-0.239-6.984h-0.072c-0.552,1.896-1.225,3.912-2.04,6.145l-2.856,7.849h-1.584
			l-2.616-7.705c-0.769-2.28-1.416-4.368-1.872-6.288H7.559c-0.048,2.016-0.168,4.729-0.312,7.152l-0.432,6.937H4.823l1.128-16.178
			h2.664l2.76,7.825c0.673,1.992,1.225,3.769,1.633,5.448h0.071c0.408-1.632,0.984-3.408,1.704-5.448l2.881-7.825h2.664
			l1.008,16.178h-2.04L18.888,22.405z"/>
		<path d="M31.055,29.509l-0.168-1.464h-0.072c-0.647,0.912-1.896,1.728-3.552,1.728c-2.353,0-3.553-1.656-3.553-3.336
			c0-2.809,2.496-4.345,6.984-4.32v-0.24c0-0.96-0.264-2.688-2.64-2.688c-1.08,0-2.208,0.336-3.024,0.864l-0.48-1.392
			c0.961-0.624,2.353-1.032,3.816-1.032c3.553,0,4.417,2.424,4.417,4.752v4.345c0,1.008,0.048,1.992,0.191,2.784H31.055z
			 M30.743,23.581c-2.305-0.048-4.921,0.36-4.921,2.616c0,1.368,0.912,2.017,1.992,2.017c1.513,0,2.473-0.96,2.809-1.944
			c0.071-0.216,0.12-0.456,0.12-0.672V23.581z"/>
		<path d="M36.19,21.516c0-1.367-0.023-2.544-0.096-3.624h1.848l0.072,2.28h0.096c0.528-1.56,1.801-2.544,3.217-2.544
			c0.24,0,0.408,0.023,0.6,0.072v1.992c-0.216-0.049-0.432-0.072-0.72-0.072c-1.488,0-2.544,1.128-2.832,2.712
			c-0.048,0.288-0.097,0.624-0.097,0.984v6.192H36.19V21.516z"/>
		<path d="M52.079,29.078c-0.553,0.288-1.776,0.672-3.337,0.672c-3.504,0-5.784-2.376-5.784-5.929c0-3.576,2.448-6.169,6.24-6.169
			c1.248,0,2.353,0.313,2.929,0.601l-0.48,1.632c-0.504-0.288-1.296-0.552-2.448-0.552c-2.664,0-4.104,1.968-4.104,4.393
			c0,2.688,1.729,4.344,4.033,4.344c1.199,0,1.992-0.312,2.592-0.576L52.079,29.078z"/>
		<path d="M64.271,26.341c0,1.2,0.024,2.256,0.097,3.168h-1.872l-0.12-1.896h-0.048c-0.553,0.937-1.776,2.16-3.841,2.16
			c-1.824,0-4.009-1.008-4.009-5.088v-6.793h2.112v6.433c0,2.208,0.673,3.696,2.593,3.696c1.416,0,2.4-0.984,2.784-1.92
			c0.12-0.313,0.191-0.696,0.191-1.08v-7.129h2.112V26.341z"/>
		<path d="M67.486,27.349c0.624,0.408,1.729,0.84,2.784,0.84c1.536,0,2.257-0.768,2.257-1.728c0-1.009-0.601-1.561-2.16-2.137
			c-2.089-0.744-3.072-1.896-3.072-3.288c0-1.872,1.512-3.408,4.008-3.408c1.177,0,2.208,0.336,2.856,0.72l-0.528,1.536
			c-0.456-0.288-1.296-0.672-2.376-0.672c-1.248,0-1.944,0.72-1.944,1.584c0,0.96,0.696,1.393,2.208,1.969
			c2.017,0.768,3.049,1.775,3.049,3.504c0,2.04-1.584,3.48-4.345,3.48c-1.271,0-2.448-0.313-3.264-0.792L67.486,27.349z"/>
	</g>
	<g>
		<path d="M12.632,43.259H6.343v5.832h7.009v1.752H4.255V34.665h8.736v1.754H6.343v5.111h6.289V43.259z"/>
		<path d="M15.99,42.37c0-1.199-0.023-2.184-0.096-3.145h1.872l0.12,1.92h0.048c0.576-1.104,1.92-2.184,3.841-2.184
			c1.607,0,4.104,0.961,4.104,4.945v6.936h-2.111v-6.695c0-1.873-0.696-3.434-2.688-3.434c-1.393,0-2.473,0.984-2.832,2.16
			c-0.097,0.264-0.145,0.625-0.145,0.984v6.984H15.99V42.37z"/>
		<path d="M39.319,39.226c-0.048,0.84-0.096,1.777-0.096,3.193v6.744c0,2.664-0.528,4.297-1.656,5.305
			c-1.128,1.057-2.76,1.393-4.225,1.393c-1.392,0-2.928-0.336-3.864-0.961l0.528-1.607c0.768,0.48,1.968,0.912,3.408,0.912
			c2.16,0,3.744-1.129,3.744-4.057v-1.297h-0.048c-0.648,1.08-1.896,1.945-3.696,1.945c-2.88,0-4.944-2.449-4.944-5.666
			c0-3.936,2.568-6.168,5.232-6.168c2.017,0,3.12,1.057,3.624,2.016h0.048l0.097-1.752H39.319z M37.136,43.812
			c0-0.361-0.024-0.674-0.12-0.961c-0.384-1.225-1.416-2.232-2.952-2.232c-2.017,0-3.457,1.705-3.457,4.393
			c0,2.279,1.152,4.176,3.433,4.176c1.296,0,2.473-0.816,2.929-2.16c0.12-0.359,0.168-0.768,0.168-1.127V43.812z"/>
		<path d="M44.935,35.962c0.023,0.721-0.504,1.297-1.345,1.297c-0.743,0-1.271-0.576-1.271-1.297c0-0.744,0.552-1.32,1.32-1.32
			C44.431,34.642,44.935,35.218,44.935,35.962z M42.582,50.843V39.226h2.112v11.617H42.582z"/>
		<path d="M48.198,42.37c0-1.199-0.023-2.184-0.096-3.145h1.872l0.12,1.92h0.048c0.576-1.104,1.92-2.184,3.841-2.184
			c1.607,0,4.104,0.961,4.104,4.945v6.936h-2.111v-6.695c0-1.873-0.696-3.434-2.688-3.434c-1.393,0-2.473,0.984-2.832,2.16
			c-0.097,0.264-0.145,0.625-0.145,0.984v6.984h-2.112V42.37z"/>
		<path d="M62.694,45.419c0.048,2.855,1.872,4.031,3.983,4.031c1.513,0,2.425-0.264,3.217-0.6l0.36,1.512
			c-0.744,0.338-2.017,0.721-3.864,0.721c-3.577,0-5.713-2.352-5.713-5.855c0-3.506,2.064-6.266,5.448-6.266
			c3.793,0,4.801,3.336,4.801,5.473c0,0.432-0.048,0.768-0.072,0.984H62.694z M68.887,43.907c0.023-1.344-0.553-3.434-2.929-3.434
			c-2.136,0-3.072,1.969-3.24,3.434H68.887z"/>
		<path d="M74.718,45.419c0.048,2.855,1.872,4.031,3.983,4.031c1.513,0,2.425-0.264,3.217-0.6l0.36,1.512
			c-0.744,0.338-2.017,0.721-3.864,0.721c-3.577,0-5.713-2.352-5.713-5.855c0-3.506,2.064-6.266,5.448-6.266
			c3.793,0,4.801,3.336,4.801,5.473c0,0.432-0.048,0.768-0.072,0.984H74.718z M80.91,43.907c0.023-1.344-0.553-3.434-2.929-3.434
			c-2.136,0-3.072,1.969-3.24,3.434H80.91z"/>
		<path d="M85.565,42.851c0-1.367-0.023-2.545-0.096-3.625h1.848l0.072,2.281h0.096c0.528-1.561,1.801-2.545,3.217-2.545
			c0.24,0,0.408,0.023,0.6,0.072v1.992c-0.216-0.049-0.432-0.072-0.72-0.072c-1.488,0-2.544,1.129-2.832,2.713
			c-0.048,0.287-0.096,0.623-0.096,0.984v6.191h-2.089V42.851z"/>
		<path d="M95.861,35.962c0.023,0.721-0.504,1.297-1.345,1.297c-0.743,0-1.271-0.576-1.271-1.297c0-0.744,0.552-1.32,1.32-1.32
			C95.357,34.642,95.861,35.218,95.861,35.962z M93.509,50.843V39.226h2.112v11.617H93.509z"/>
		<path d="M99.125,42.37c0-1.199-0.023-2.184-0.096-3.145h1.872l0.12,1.92h0.048c0.576-1.104,1.92-2.184,3.841-2.184
			c1.607,0,4.104,0.961,4.104,4.945v6.936h-2.111v-6.695c0-1.873-0.696-3.434-2.688-3.434c-1.393,0-2.473,0.984-2.832,2.16
			c-0.097,0.264-0.145,0.625-0.145,0.984v6.984h-2.112V42.37z"/>
		<path d="M122.454,39.226c-0.048,0.84-0.096,1.777-0.096,3.193v6.744c0,2.664-0.528,4.297-1.656,5.305
			c-1.128,1.057-2.76,1.393-4.225,1.393c-1.392,0-2.928-0.336-3.864-0.961l0.528-1.607c0.768,0.48,1.968,0.912,3.408,0.912
			c2.16,0,3.744-1.129,3.744-4.057v-1.297h-0.048c-0.648,1.08-1.896,1.945-3.696,1.945c-2.88,0-4.944-2.449-4.944-5.666
			c0-3.936,2.568-6.168,5.232-6.168c2.017,0,3.12,1.057,3.624,2.016h0.048l0.097-1.752H122.454z M120.271,43.812
			c0-0.361-0.024-0.674-0.12-0.961c-0.384-1.225-1.416-2.232-2.952-2.232c-2.017,0-3.457,1.705-3.457,4.393
			c0,2.279,1.152,4.176,3.433,4.176c1.296,0,2.473-0.816,2.929-2.16c0.12-0.359,0.168-0.768,0.168-1.127V43.812z"/>
	</g>
	<g>
		<path d="M40.22,52.134h0.521v3.605h1.727v0.438H40.22V52.134z"/>
		<path d="M43.052,52.134h0.521v3.605H45.3v0.438h-2.248V52.134z"/>
		<path d="M48.474,56.044c-0.192,0.096-0.576,0.191-1.067,0.191c-1.14,0-1.997-0.719-1.997-2.045c0-1.264,0.857-2.121,2.111-2.121
			c0.503,0,0.821,0.107,0.959,0.18l-0.126,0.426c-0.198-0.096-0.479-0.168-0.815-0.168c-0.947,0-1.577,0.605-1.577,1.666
			c0,0.99,0.569,1.625,1.553,1.625c0.318,0,0.642-0.064,0.852-0.168L48.474,56.044z"/>
	</g>
</g>
</svg>
